# xmcd
#
# Track frame offsets:
#	150
#	14436
#	30609
#	47579
#	76619
#	101434
#	116116
#	153924
#	167348
#	196929
#	216428
#	263501
#
# Disc length: 4108 seconds
#
# Revision: 1
# Processed by: cddbd v1.5.2PL0 Copyright (c) Steve Scherf et al.
# Submitted via: audiograbber 1.83.01
#
DISCID=8b100a0c
DTITLE=Grateful Dead - 80-10-09 Warfield Theatre, San Francisco CA
DYEAR=1900
DGENRE=
TTITLE0=Dire Wolf
TTITLE1=Dark Hollow
TTITLE2=I've Been All Around This World
TTITLE3=Cassidy
TTITLE4=China Doll
TTITLE5=On The Road Again
TTITLE6=Bird Song
TTITLE7=The Race Is On
TTITLE8=It Ain't No Lie
TTITLE9=Ripple
TTITLE10=Feel Like A Stranger
TTITLE11=Friend Of The Devil
EXTD=
EXTT0=
EXTT1=
EXTT2=
EXTT3=
EXTT4=
EXTT5=
EXTT6=
EXTT7=
EXTT8=
EXTT9=
EXTT10=
EXTT11=
PLAYORDER=
